<svg width="16px" height="16px" xmlns="http://www.w3.org/2000/svg" viewBox="0 0 16 16">
	<style>rect { width: 1px; height: 1px; }</style>
	<rect x="2" y="1" fill="#0f3031ff" />
	<rect x="3" y="1" fill="#0f3031ff" />
	<rect x="4" y="1" fill="#0f3031ff" />
	<rect x="5" y="1" fill="#0f3031ff" />
	<rect x="6" y="1" fill="#0f3031ff" />
	<rect x="7" y="1" fill="#0f3031ff" />
	<rect x="8" y="1" fill="#0f3031ff" />
	<rect x="9" y="1" fill="#0f3031ff" />
	<rect x="2" y="2" fill="#0f3031ff" />
	<rect x="3" y="2" fill="#3e6c7bef" />
	<rect x="4" y="2" fill="#467a7dff" />
	<rect x="5" y="2" fill="#4e7f71ff" />
	<rect x="6" y="2" fill="#5b9074ff" />
	<rect x="7" y="2" fill="#62986dff" />
	<rect x="8" y="2" fill="#629a69ff" />
	<rect x="9" y="2" fill="#0f3031ff" />
	<rect x="10" y="2" fill="#2f5243ff" />
	<rect x="2" y="3" fill="#0f3031ff" />
	<rect x="3" y="3" fill="#4c7c84ff" />
	<rect x="4" y="3" fill="#789e9bff" />
	<rect x="5" y="3" fill="#96b5aaff" />
	<rect x="6" y="3" fill="#7fa790ff" />
	<rect x="7" y="3" fill="#74a077ff" />
	<rect x="8" y="3" fill="#6ea268ff" />
	<rect x="9" y="3" fill="#0f3031ff" />
	<rect x="10" y="3" fill="#3d6244ff" />
	<rect x="11" y="3" fill="#456753ff" />
	<rect x="2" y="4" fill="#0f3031ff" />
	<rect x="3" y="4" fill="#749a97ff" />
	<rect x="4" y="4" fill="#a5bfb7ff" />
	<rect x="5" y="4" fill="#c4dbd1ff" />
	<rect x="6" y="4" fill="#9bbca4ff" />
	<rect x="7" y="4" fill="#7a9b7aff" />
	<rect x="8" y="4" fill="#76a365ff" />
	<rect x="9" y="4" fill="#0f3031ff" />
	<rect x="10" y="4" fill="#456a41ff" />
	<rect x="11" y="4" fill="#506b5aff" />
	<rect x="12" y="4" fill="#38564eff" />
	<rect x="2" y="5" fill="#0f3031ff" />
	<rect x="3" y="5" fill="#b8d2cdff" />
	<rect x="4" y="5" fill="#bed4cdff" />
	<rect x="5" y="5" fill="#9fbca9ff" />
	<rect x="6" y="5" fill="#86c24fff" />
	<rect x="7" y="5" fill="#456529ff" />
	<rect x="8" y="5" fill="#6e994eff" />
	<rect x="9" y="5" fill="#0f3031ff" />
	<rect x="10" y="5" fill="#0f3031ff" />
	<rect x="11" y="5" fill="#0f3031ff" />
	<rect x="12" y="5" fill="#0f3031ff" />
	<rect x="13" y="5" fill="#0f3031ff" />
	<rect x="2" y="6" fill="#0f3031ff" />
	<rect x="3" y="6" fill="#9bbaafff" />
	<rect x="4" y="6" fill="#9cc29bff" />
	<rect x="5" y="6" fill="#81b562ff" />
	<rect x="6" y="6" fill="#557a32ff" />
	<rect x="7" y="6" fill="#2e451cff" />
	<rect x="8" y="6" fill="#415e2dff" />
	<rect x="9" y="6" fill="#638b45ff" />
	<rect x="10" y="6" fill="#81ba58ff" />
	<rect x="11" y="6" fill="#82b179ff" />
	<rect x="12" y="6" fill="#82ae86ff" />
	<rect x="13" y="6" fill="#0f3031ff" />
	<rect x="2" y="7" fill="#0f3031ff" />
	<rect x="3" y="7" fill="#78a582ff" />
	<rect x="4" y="7" fill="#82b56cff" />
	<rect x="5" y="7" fill="#7eba4bff" />
	<rect x="6" y="7" fill="#3a5623ff" />
	<rect x="7" y="7" fill="#223516ff" />
	<rect x="8" y="7" fill="#293e19ff" />
	<rect x="9" y="7" fill="#507233ff" />
	<rect x="10" y="7" fill="#85bf59ff" />
	<rect x="11" y="7" fill="#6fa950ff" />
	<rect x="12" y="7" fill="#6fa16dff" />
	<rect x="13" y="7" fill="#0f3031ff" />
	<rect x="2" y="8" fill="#0f3031ff" />
	<rect x="3" y="8" fill="#619859ff" />
	<rect x="4" y="8" fill="#71ad4cff" />
	<rect x="5" y="8" fill="#7eba4eff" />
	<rect x="6" y="8" fill="#355021ff" />
	<rect x="7" y="8" fill="#203215ff" />
	<rect x="8" y="8" fill="#283d18ff" />
	<rect x="9" y="8" fill="#507233ff" />
	<rect x="10" y="8" fill="#86c058ff" />
	<rect x="11" y="8" fill="#71ab4cff" />
	<rect x="12" y="8" fill="#679c5fff" />
	<rect x="13" y="8" fill="#0f3031ff" />
	<rect x="2" y="9" fill="#0f3031ff" />
	<rect x="3" y="9" fill="#619958ff" />
	<rect x="4" y="9" fill="#69a44cff" />
	<rect x="5" y="9" fill="#6ba445ff" />
	<rect x="6" y="9" fill="#334b1eff" />
	<rect x="7" y="9" fill="#203314ff" />
	<rect x="8" y="9" fill="#324a1eff" />
	<rect x="9" y="9" fill="#557b37ff" />
	<rect x="10" y="9" fill="#7eb852ff" />
	<rect x="11" y="9" fill="#629a46ff" />
	<rect x="12" y="9" fill="#75af64ff" />
	<rect x="13" y="9" fill="#0f3031ff" />
	<rect x="2" y="10" fill="#0f3031ff" />
	<rect x="3" y="10" fill="#699b66ff" />
	<rect x="4" y="10" fill="#5e9751ff" />
	<rect x="5" y="10" fill="#69a251ff" />
	<rect x="6" y="10" fill="#82ba52ff" />
	<rect x="7" y="10" fill="#47662cff" />
	<rect x="8" y="10" fill="#628f3fff" />
	<rect x="9" y="10" fill="#7ebb51ff" />
	<rect x="10" y="10" fill="#6ba445ff" />
	<rect x="11" y="10" fill="#87b387ff" />
	<rect x="12" y="10" fill="#70a07cff" />
	<rect x="13" y="10" fill="#0f3031ff" />
	<rect x="2" y="11" fill="#0f3031ff" />
	<rect x="3" y="11" fill="#9bbba9ff" />
	<rect x="4" y="11" fill="#8cb28fff" />
	<rect x="5" y="11" fill="#5a924dff" />
	<rect x="6" y="11" fill="#6ba449ff" />
	<rect x="7" y="11" fill="#4a7332ff" />
	<rect x="8" y="11" fill="#58893dff" />
	<rect x="9" y="11" fill="#71ab56ff" />
	<rect x="10" y="11" fill="#81af79ff" />
	<rect x="11" y="11" fill="#b2d0baff" />
	<rect x="12" y="11" fill="#81a295ff" />
	<rect x="13" y="11" fill="#0f3031ff" />
	<rect x="2" y="12" fill="#0f3031ff" />
	<rect x="3" y="12" fill="#93aca9ff" />
	<rect x="4" y="12" fill="#87a796ff" />
	<rect x="5" y="12" fill="#4b8154ff" />
	<rect x="6" y="12" fill="#548b4fff" />
	<rect x="7" y="12" fill="#528153ff" />
	<rect x="8" y="12" fill="#578959ff" />
	<rect x="9" y="12" fill="#659968ff" />
	<rect x="10" y="12" fill="#7fa986ff" />
	<rect x="11" y="12" fill="#a8c0b9ff" />
	<rect x="12" y="12" fill="#748d8eff" />
	<rect x="13" y="12" fill="#0f3031ff" />
	<rect x="2" y="13" fill="#0f3031ff" />
	<rect x="3" y="13" fill="#214b55ff" />
	<rect x="4" y="13" fill="#346662ff" />
	<rect x="5" y="13" fill="#457866ff" />
	<rect x="6" y="13" fill="#518065ff" />
	<rect x="7" y="13" fill="#5d8e79ff" />
	<rect x="8" y="13" fill="#62947fff" />
	<rect x="9" y="13" fill="#639680ff" />
	<rect x="10" y="13" fill="#5a8c6cff" />
	<rect x="11" y="13" fill="#4b767cff" />
	<rect x="12" y="13" fill="#32525bff" />
	<rect x="13" y="13" fill="#0f3031ff" />
	<rect x="2" y="14" fill="#0f3031ff" />
	<rect x="3" y="14" fill="#0f3031ff" />
	<rect x="4" y="14" fill="#0f3031ff" />
	<rect x="5" y="14" fill="#0f3031ff" />
	<rect x="6" y="14" fill="#0f3031ff" />
	<rect x="7" y="14" fill="#0f3031ff" />
	<rect x="8" y="14" fill="#0f3031ff" />
	<rect x="9" y="14" fill="#0f3031ff" />
	<rect x="10" y="14" fill="#0f3031ff" />
	<rect x="11" y="14" fill="#0f3031ff" />
	<rect x="12" y="14" fill="#0f3031ff" />
	<rect x="13" y="14" fill="#0f3031ff" />
</svg>
